<svg width="30" height="30" viewBox="0 0 30 30" fill="none" xmlns="http://www.w3.org/2000/svg">
<path fill-rule="evenodd" clip-rule="evenodd" d="M13.75 4.6875C8.74492 4.6875 4.6875 8.74493 4.6875 13.75C4.6875 15.954 5.47311 17.9721 6.78059 19.5431C6.98497 19.7887 7.05021 20.1215 6.95367 20.4261L6.03062 23.3384L9.78504 22.1556C9.99049 22.0909 10.212 22.0989 10.4122 22.1782C11.4439 22.5872 12.5695 22.8125 13.75 22.8125H16.25C21.2551 22.8125 25.3125 18.7551 25.3125 13.75C25.3125 8.74493 21.2551 4.6875 16.25 4.6875H13.75ZM2.8125 13.75C2.8125 7.70939 7.70939 2.8125 13.75 2.8125H16.25C22.2906 2.8125 27.1875 7.70939 27.1875 13.75C27.1875 19.7906 22.2906 24.6875 16.25 24.6875H13.75C12.4487 24.6875 11.1987 24.4599 10.0388 24.0415L6.02057 25.3074C4.81394 25.6875 3.67937 24.551 4.0616 23.345L4.67262 23.5387L4.0616 23.345L5.01581 20.3345C3.63307 18.5029 2.8125 16.2212 2.8125 13.75Z" fill="#1B1B1B"/>
<path d="M10.625 15C11.3154 15 11.875 14.4404 11.875 13.75C11.875 13.0596 11.3154 12.5 10.625 12.5C9.93464 12.5 9.375 13.0596 9.375 13.75C9.375 14.4404 9.93464 15 10.625 15Z" fill="#1B1B1B"/>
<path d="M15 15C15.6904 15 16.25 14.4404 16.25 13.75C16.25 13.0596 15.6904 12.5 15 12.5C14.3096 12.5 13.75 13.0596 13.75 13.75C13.75 14.4404 14.3096 15 15 15Z" fill="#1B1B1B"/>
<path d="M19.375 15C20.0654 15 20.625 14.4404 20.625 13.75C20.625 13.0596 20.0654 12.5 19.375 12.5C18.6846 12.5 18.125 13.0596 18.125 13.75C18.125 14.4404 18.6846 15 19.375 15Z" fill="#1B1B1B"/>
</svg>
