<svg width="31" height="30" viewBox="0 0 31 30" fill="none" xmlns="http://www.w3.org/2000/svg">
<path d="M2.57825 12.5953L13.5421 4.12245C14.4572 3.4152 15.7577 3.4152 16.6729 4.12245L27.6367 12.5953" stroke="#A98AB0" stroke-width="1.5" stroke-linecap="round" stroke-linejoin="round"/>
<path d="M11.9471 5.3932L6.9354 9.32674C6.02546 10.0409 5.57049 10.398 5.32726 10.8916C5.08405 11.3853 5.08405 11.9516 5.08405 13.0841V17.4366C5.08405 22.0009 5.08405 24.2832 6.55193 25.7011C8.01983 27.1191 10.3823 27.1191 15.1074 27.1191C19.8324 27.1191 22.1951 27.1191 23.6628 25.7011C25.1308 24.2832 25.1308 22.0009 25.1308 17.4366V13.0841C25.1308 11.9516 25.1308 11.3853 24.8876 10.8916C24.6443 10.398 24.1893 10.0409 23.2795 9.32674L18.2678 5.3932C16.754 4.20508 15.9971 3.61102 15.1074 3.61102C14.2177 3.61102 13.4608 4.20508 11.9471 5.3932Z" stroke="#A98AB0" stroke-width="1.5"/>
</svg>
