<svg width="31" height="30" viewBox="0 0 31 30" fill="none" xmlns="http://www.w3.org/2000/svg">
<path fill-rule="evenodd" clip-rule="evenodd" d="M13.5669 23.2026C12.9092 23.2026 12.4091 23.7948 12.7531 24.3362C13.359 25.2898 14.4484 25.9258 15.6917 25.9258C16.9349 25.9258 18.0243 25.2898 18.6303 24.3362C18.9744 23.7948 18.4742 23.2026 17.8165 23.2026C17.3979 23.2026 17.0385 23.4689 16.7237 23.7354C16.4482 23.9689 16.087 24.1103 15.6917 24.1103C15.2963 24.1103 14.9352 23.9689 14.6596 23.7354C14.3449 23.4689 13.9854 23.2026 13.5669 23.2026Z" fill="black"/>
<mask id="mask0_79_614" style="mask-type:alpha" maskUnits="userSpaceOnUse" x="5" y="2" width="22" height="21">
<path fill-rule="evenodd" clip-rule="evenodd" d="M25.0885 13.624C25.0885 10.0072 23.2301 6.62622 20.1283 4.60033L18.4988 3.53596C16.8029 2.42832 14.5803 2.42832 12.8844 3.53596L11.2548 4.60032C8.15316 6.62622 6.2947 10.0072 6.2947 13.624V15.9405C5.52572 16.6053 5.04178 17.5715 5.04178 18.6469C5.04178 20.6522 6.72464 22.2778 8.80054 22.2778H22.5827C24.6586 22.2778 26.3414 20.6522 26.3414 18.6469C26.3414 17.5715 25.8574 16.6053 25.0885 15.9405V13.624Z" fill="white"/>
</mask>
<g mask="url(#mask0_79_614)">
<path d="M20.1283 4.60032L19.0756 6.10427L20.1283 4.60032ZM25.0885 13.624H26.9679H25.0885ZM18.4988 3.53594L19.5515 2.03199L18.4988 3.53594ZM12.8844 3.53594L11.8317 2.03199L12.8844 3.53594ZM11.2548 4.6003L12.3075 6.10427L11.2548 4.6003ZM6.29469 13.624H8.17407H6.29469ZM6.29469 15.9405L7.54807 17.2932L8.17407 16.752V15.9405H6.29469ZM25.0885 15.9405H23.2091V16.752L23.8351 17.2932L25.0885 15.9405ZM19.0756 6.10427C21.6604 7.7925 23.2091 10.61 23.2091 13.624H26.9679C26.9679 9.40438 24.7997 5.4599 21.181 3.09635L19.0756 6.10427ZM17.4461 5.03989L19.0756 6.10427L21.181 3.09635L19.5515 2.03199L17.4461 5.03989ZM13.9371 5.03989C14.997 4.34763 16.3862 4.34763 17.4461 5.03989L19.5515 2.03199C17.2197 0.508992 14.1635 0.508991 11.8317 2.03199L13.9371 5.03989ZM12.3075 6.10427L13.9371 5.03989L11.8317 2.03199L10.2021 3.09635L12.3075 6.10427ZM8.17407 13.624C8.17407 10.61 9.72278 7.7925 12.3075 6.10427L10.2021 3.09635C6.5835 5.4599 4.4153 9.40438 4.4153 13.624H8.17407ZM8.17407 15.9405V13.624H4.4153V15.9405H8.17407ZM6.92115 18.6468C6.92115 18.1093 7.16058 17.6282 7.54807 17.2932L5.0413 14.5877C3.89083 15.5823 3.16238 17.0336 3.16238 18.6468H6.92115ZM8.80053 20.4623C7.76257 20.4623 6.92115 19.6495 6.92115 18.6468H3.16238C3.16238 21.6548 5.68667 24.0933 8.80053 24.0933V20.4623ZM22.5827 20.4623H8.80053V24.0933H22.5827V20.4623ZM24.462 18.6468C24.462 19.6495 23.6206 20.4623 22.5827 20.4623V24.0933C25.6965 24.0933 28.2208 21.6548 28.2208 18.6468H24.462ZM23.8351 17.2932C24.2226 17.6282 24.462 18.1093 24.462 18.6468H28.2208C28.2208 17.0336 27.4923 15.5823 26.3419 14.5877L23.8351 17.2932ZM23.2091 13.624V15.9405H26.9679V13.624H23.2091Z" fill="black"/>
</g>
</svg>
