<svg width="31" height="30" viewBox="0 0 31 30" fill="none" xmlns="http://www.w3.org/2000/svg">
<path d="M20.1542 10.2699C20.1542 12.5052 18.2709 14.3611 15.8925 14.3611C13.5142 14.3611 11.6308 12.5052 11.6308 10.2699C11.6308 8.03456 13.5142 6.17859 15.8925 6.17859C18.2709 6.17859 20.1542 8.03456 20.1542 10.2699Z" stroke="black" stroke-width="1.5"/>
<path d="M7.87384 23.3413C7.87384 23.3413 10.2585 18.0159 11.1256 18.0159C12.2095 18.0159 19.7117 18.0159 20.5196 18.0159C21.2422 18.0159 23.4101 23.3413 23.4101 23.3413" stroke="black" stroke-width="1.5"/>
<path d="M30.1776 15.1111C30.1776 22.6939 23.8066 28.8849 15.8925 28.8849C7.97845 28.8849 1.60748 22.6939 1.60748 15.1111C1.60748 7.5283 7.97845 1.33731 15.8925 1.33731C23.8066 1.33731 30.1776 7.5283 30.1776 15.1111Z" stroke="black" stroke-width="1.5"/>
</svg>
