<svg width="24" height="26" viewBox="0 0 24 26" fill="none" xmlns="http://www.w3.org/2000/svg">
<path d="M6 14.2925C6.85196 14.2925 7.5 13.5735 7.5 12.7406C7.5 11.9076 6.85196 11.1887 6 11.1887C5.14804 11.1887 4.5 11.9076 4.5 12.7406C4.5 13.5735 5.14804 14.2925 6 14.2925Z" fill="#A98AB0" stroke="#A98AB0"/>
<path d="M12 14.2925C12.852 14.2925 13.5 13.5735 13.5 12.7406C13.5 11.9076 12.852 11.1887 12 11.1887C11.148 11.1887 10.5 11.9076 10.5 12.7406C10.5 13.5735 11.148 14.2925 12 14.2925Z" fill="#A98AB0" stroke="#A98AB0"/>
<path d="M18 14.2925C18.852 14.2925 19.5 13.5735 19.5 12.7406C19.5 11.9076 18.852 11.1887 18 11.1887C17.148 11.1887 16.5 11.9076 16.5 12.7406C16.5 13.5735 17.148 14.2925 18 14.2925Z" fill="#A98AB0" stroke="#A98AB0"/>
</svg>
