<svg width="31" height="30" viewBox="0 0 31 30" fill="none" xmlns="http://www.w3.org/2000/svg">
<path d="M21.7693 3.82047H9.2401C6.29923 3.82047 3.91518 6.12344 3.91518 8.96431V21.0675C3.91518 23.9084 6.29923 26.2113 9.2401 26.2113H21.7693C24.7102 26.2113 27.0942 23.9084 27.0942 21.0675V8.96431C27.0942 6.12344 24.7102 3.82047 21.7693 3.82047Z" stroke="black" stroke-width="1.5"/>
<path d="M11.7459 16.1356V13.4804C11.7459 10.8555 11.7459 9.54304 12.5344 9.09501C13.3229 8.64699 14.3425 9.38013 16.3817 10.8464L18.3159 12.2372C20.0451 13.4805 20.9096 14.1022 20.892 14.9692C20.8744 15.8362 19.9854 16.4173 18.2075 17.5796L16.2733 18.844C14.2687 20.1543 13.2664 20.8095 12.5062 20.3547C11.7459 19.8999 11.7459 18.6452 11.7459 16.1356Z" stroke="black" stroke-width="1.5" stroke-linecap="round" stroke-linejoin="round"/>
</svg>
